solid ESP32_WROVER_B
  facet normal 0.0 0.0 -1.0
    outer loop
      vertex 0.000 0.000 0.000
      vertex 18.000 31.400 0.000
      vertex 18.000 0.000 0.000
    endloop
  endfacet
  facet normal 0.0 0.0 -1.0
    outer loop
      vertex 0.000 0.000 0.000
      vertex 0.000 31.400 0.000
      vertex 18.000 31.400 0.000
    endloop
  endfacet
  facet normal 0.0 0.0 1.0
    outer loop
      vertex 0.000 0.000 3.300
      vertex 18.000 0.000 3.300
      vertex 18.000 31.400 3.300
    endloop
  endfacet
  facet normal 0.0 0.0 1.0
    outer loop
      vertex 0.000 0.000 3.300
      vertex 18.000 31.400 3.300
      vertex 0.000 31.400 3.300
    endloop
  endfacet
  facet normal 0.0 -1.0 0.0
    outer loop
      vertex 0.000 0.000 0.000
      vertex 18.000 0.000 0.000
      vertex 18.000 0.000 3.300
    endloop
  endfacet
  facet normal 0.0 -1.0 0.0
    outer loop
      vertex 0.000 0.000 0.000
      vertex 18.000 0.000 3.300
      vertex 0.000 0.000 3.300
    endloop
  endfacet
  facet normal 0.0 1.0 0.0
    outer loop
      vertex 18.000 31.400 0.000
      vertex 0.000 31.400 0.000
      vertex 0.000 31.400 3.300
    endloop
  endfacet
  facet normal 0.0 1.0 0.0
    outer loop
      vertex 18.000 31.400 0.000
      vertex 0.000 31.400 3.300
      vertex 18.000 31.400 3.300
    endloop
  endfacet
  facet normal -1.0 0.0 0.0
    outer loop
      vertex 0.000 0.000 0.000
      vertex 0.000 0.000 3.300
      vertex 0.000 31.400 3.300
    endloop
  endfacet
  facet normal -1.0 0.0 0.0
    outer loop
      vertex 0.000 0.000 0.000
      vertex 0.000 31.400 3.300
      vertex 0.000 31.400 0.000
    endloop
  endfacet
  facet normal 1.0 0.0 0.0
    outer loop
      vertex 18.000 0.000 0.000
      vertex 18.000 31.400 0.000
      vertex 18.000 31.400 3.300
    endloop
  endfacet
  facet normal 1.0 0.0 0.0
    outer loop
      vertex 18.000 0.000 0.000
      vertex 18.000 31.400 3.300
      vertex 18.000 0.000 3.300
    endloop
  endfacet
endsolid ESP32_WROVER_B
