solid STM32F407ZGT6
  facet normal 0.0 0.0 -1.0
    outer loop
      vertex 0.000 0.000 0.000
      vertex 20.000 20.000 0.000
      vertex 20.000 0.000 0.000
    endloop
  endfacet
  facet normal 0.0 0.0 -1.0
    outer loop
      vertex 0.000 0.000 0.000
      vertex 0.000 20.000 0.000
      vertex 20.000 20.000 0.000
    endloop
  endfacet
  facet normal 0.0 0.0 1.0
    outer loop
      vertex 0.000 0.000 1.400
      vertex 20.000 0.000 1.400
      vertex 20.000 20.000 1.400
    endloop
  endfacet
  facet normal 0.0 0.0 1.0
    outer loop
      vertex 0.000 0.000 1.400
      vertex 20.000 20.000 1.400
      vertex 0.000 20.000 1.400
    endloop
  endfacet
  facet normal 0.0 -1.0 0.0
    outer loop
      vertex 0.000 0.000 0.000
      vertex 20.000 0.000 0.000
      vertex 20.000 0.000 1.400
    endloop
  endfacet
  facet normal 0.0 -1.0 0.0
    outer loop
      vertex 0.000 0.000 0.000
      vertex 20.000 0.000 1.400
      vertex 0.000 0.000 1.400
    endloop
  endfacet
  facet normal 0.0 1.0 0.0
    outer loop
      vertex 20.000 20.000 0.000
      vertex 0.000 20.000 0.000
      vertex 0.000 20.000 1.400
    endloop
  endfacet
  facet normal 0.0 1.0 0.0
    outer loop
      vertex 20.000 20.000 0.000
      vertex 0.000 20.000 1.400
      vertex 20.000 20.000 1.400
    endloop
  endfacet
  facet normal -1.0 0.0 0.0
    outer loop
      vertex 0.000 0.000 0.000
      vertex 0.000 0.000 1.400
      vertex 0.000 20.000 1.400
    endloop
  endfacet
  facet normal -1.0 0.0 0.0
    outer loop
      vertex 0.000 0.000 0.000
      vertex 0.000 20.000 1.400
      vertex 0.000 20.000 0.000
    endloop
  endfacet
  facet normal 1.0 0.0 0.0
    outer loop
      vertex 20.000 0.000 0.000
      vertex 20.000 20.000 0.000
      vertex 20.000 20.000 1.400
    endloop
  endfacet
  facet normal 1.0 0.0 0.0
    outer loop
      vertex 20.000 0.000 0.000
      vertex 20.000 20.000 1.400
      vertex 20.000 0.000 1.400
    endloop
  endfacet
endsolid STM32F407ZGT6
