solid PM_SENSOR_MODULE
  facet normal 0.0 0.0 -1.0
    outer loop
      vertex 0.000 0.000 0.000
      vertex 50.000 38.000 0.000
      vertex 50.000 0.000 0.000
    endloop
  endfacet
  facet normal 0.0 0.0 -1.0
    outer loop
      vertex 0.000 0.000 0.000
      vertex 0.000 38.000 0.000
      vertex 50.000 38.000 0.000
    endloop
  endfacet
  facet normal 0.0 0.0 1.0
    outer loop
      vertex 0.000 0.000 21.000
      vertex 50.000 0.000 21.000
      vertex 50.000 38.000 21.000
    endloop
  endfacet
  facet normal 0.0 0.0 1.0
    outer loop
      vertex 0.000 0.000 21.000
      vertex 50.000 38.000 21.000
      vertex 0.000 38.000 21.000
    endloop
  endfacet
  facet normal 0.0 -1.0 0.0
    outer loop
      vertex 0.000 0.000 0.000
      vertex 50.000 0.000 0.000
      vertex 50.000 0.000 21.000
    endloop
  endfacet
  facet normal 0.0 -1.0 0.0
    outer loop
      vertex 0.000 0.000 0.000
      vertex 50.000 0.000 21.000
      vertex 0.000 0.000 21.000
    endloop
  endfacet
  facet normal 0.0 1.0 0.0
    outer loop
      vertex 50.000 38.000 0.000
      vertex 0.000 38.000 0.000
      vertex 0.000 38.000 21.000
    endloop
  endfacet
  facet normal 0.0 1.0 0.0
    outer loop
      vertex 50.000 38.000 0.000
      vertex 0.000 38.000 21.000
      vertex 50.000 38.000 21.000
    endloop
  endfacet
  facet normal -1.0 0.0 0.0
    outer loop
      vertex 0.000 0.000 0.000
      vertex 0.000 0.000 21.000
      vertex 0.000 38.000 21.000
    endloop
  endfacet
  facet normal -1.0 0.0 0.0
    outer loop
      vertex 0.000 0.000 0.000
      vertex 0.000 38.000 21.000
      vertex 0.000 38.000 0.000
    endloop
  endfacet
  facet normal 1.0 0.0 0.0
    outer loop
      vertex 50.000 0.000 0.000
      vertex 50.000 38.000 0.000
      vertex 50.000 38.000 21.000
    endloop
  endfacet
  facet normal 1.0 0.0 0.0
    outer loop
      vertex 50.000 0.000 0.000
      vertex 50.000 38.000 21.000
      vertex 50.000 0.000 21.000
    endloop
  endfacet
endsolid PM_SENSOR_MODULE
